<svg width="50" height="50" viewBox="0 0 50 50" fill="none" xmlns="http://www.w3.org/2000/svg">
<path d="M25.0003 16.6665C22.7902 16.6665 20.6706 17.5445 19.1078 19.1073C17.545 20.6701 16.667 22.7897 16.667 24.9998C16.667 27.21 17.545 29.3296 19.1078 30.8924C20.6706 32.4552 22.7902 33.3332 25.0003 33.3332C27.2105 33.3332 29.3301 32.4552 30.8929 30.8924C32.4557 29.3296 33.3337 27.21 33.3337 24.9998C33.3337 22.7897 32.4557 20.6701 30.8929 19.1073C29.3301 17.5445 27.2105 16.6665 25.0003 16.6665Z" fill="#FBCB1C"/>
<path fill-rule="evenodd" clip-rule="evenodd" d="M15 0C11.0218 0 7.20644 1.58035 4.3934 4.3934C1.58035 7.20644 0 11.0218 0 15L0 35C0 38.9782 1.58035 42.7936 4.3934 45.6066C7.20644 48.4196 11.0218 50 15 50H35C38.9782 50 42.7936 48.4196 45.6066 45.6066C48.4196 42.7936 50 38.9782 50 35V15C50 11.0218 48.4196 7.20644 45.6066 4.3934C42.7936 1.58035 38.9782 0 35 0L15 0ZM13.3333 25C13.3333 21.9058 14.5625 18.9383 16.7504 16.7504C18.9383 14.5625 21.9058 13.3333 25 13.3333C28.0942 13.3333 31.0617 14.5625 33.2496 16.7504C35.4375 18.9383 36.6667 21.9058 36.6667 25C36.6667 28.0942 35.4375 31.0617 33.2496 33.2496C31.0617 35.4375 28.0942 36.6667 25 36.6667C21.9058 36.6667 18.9383 35.4375 16.7504 33.2496C14.5625 31.0617 13.3333 28.0942 13.3333 25ZM36.6667 13.3333H40V10H36.6667V13.3333Z" fill="#FBCB1C"/>
</svg>
