<svg width="28" height="16" viewBox="0 0 28 16" fill="none" xmlns="http://www.w3.org/2000/svg">
<path d="M0.616323 0.611838C1.01107 0.220079 1.5464 0 2.10458 0C2.66275 0 3.19808 0.220079 3.59283 0.611838L14.0127 10.9559L24.4326 0.611838C24.8296 0.231181 25.3613 0.0205496 25.9133 0.0253108C26.4652 0.0300721 26.9932 0.249845 27.3835 0.637294C27.7737 1.02474 27.9951 1.54887 27.9999 2.09678C28.0047 2.6447 27.7925 3.17256 27.4091 3.56668L15.501 15.3882C15.1062 15.7799 14.5709 16 14.0127 16C13.4545 16 12.9192 15.7799 12.5245 15.3882L0.616323 3.56668C0.221692 3.17481 0 2.64338 0 2.08926C0 1.53515 0.221692 1.00372 0.616323 0.611838Z" fill="black"/>
</svg>
