<svg width="57" height="57" viewBox="0 0 57 57" fill="none" xmlns="http://www.w3.org/2000/svg">
<rect width="57" height="57" rx="8" fill="#FBCB1C"/>
<g clip-path="url(#clip0_102_905)">
<path d="M28.5013 13.9166C22.8576 13.9166 18.293 18.4812 18.293 24.125C18.293 31.7812 28.5013 43.0833 28.5013 43.0833C28.5013 43.0833 38.7096 31.7812 38.7096 24.125C38.7096 18.4812 34.1451 13.9166 28.5013 13.9166ZM28.5013 27.7708C26.4888 27.7708 24.8555 26.1375 24.8555 24.125C24.8555 22.1125 26.4888 20.4791 28.5013 20.4791C30.5138 20.4791 32.1471 22.1125 32.1471 24.125C32.1471 26.1375 30.5138 27.7708 28.5013 27.7708Z" fill="white"/>
</g>
<defs>
<clipPath id="clip0_102_905">
<rect x="11" y="11" width="35" height="35" rx="8" fill="white"/>
</clipPath>
</defs>
</svg>
