<svg width="41" height="52" viewBox="0 0 41 52" fill="none" xmlns="http://www.w3.org/2000/svg">
<path id="Vector" d="M36.4444 0H4.55556C3.34735 0 2.18862 0.532351 1.33429 1.47994C0.479959 2.42753 0 3.71274 0 5.05284V40.4227C0 43.2017 2.05 45.4755 4.55556 45.4755H13.6667L18.8828 51.261C19.7711 52.2463 21.2061 52.2463 22.0944 51.261L27.3333 45.4755H36.4444C38.95 45.4755 41 43.2017 41 40.4227V5.05284C41 2.27378 38.95 0 36.4444 0ZM20.5 8.33718C23.8939 8.33718 26.65 11.3941 26.65 15.1585C26.65 18.9229 23.8939 21.9798 20.5 21.9798C17.1061 21.9798 14.35 18.9229 14.35 15.1585C14.35 11.3941 17.1061 8.33718 20.5 8.33718ZM34.1667 35.3699H6.83333V33.0961C6.83333 28.0432 15.9444 25.2642 20.5 25.2642C25.0556 25.2642 34.1667 28.0432 34.1667 33.0961V35.3699Z" fill="#0399FA"/>
</svg>
